HIERARCHY
ROOT Hips
{
  OFFSET -69.4423 88.0299 51.6846
  CHANNELS 6 Xposition Yposition Zposition Zrotation Xrotation Yrotation
  JOINT Spine
  {
    OFFSET 12.0259 -0.162853 1.93176e-005
    CHANNELS 3 Zrotation Xrotation Yrotation
    JOINT Spine1
    {
      OFFSET 15.3169 -0.0121909 0
      CHANNELS 3 Zrotation Xrotation Yrotation
      JOINT Spine2
      {
        OFFSET 15.3176 -0.0121922 0
        CHANNELS 3 Zrotation Xrotation Yrotation
        JOINT Neck
        {
          OFFSET 19.9142 1.56236 0
          CHANNELS 3 Zrotation Xrotation Yrotation
          JOINT Head
          {
            OFFSET 6.92646 0 0
            CHANNELS 3 Zrotation Xrotation Yrotation
            End Site
            {
              OFFSET 20.7666 0 0
            }
          }
          JOINT LeftShoulder
          {
            OFFSET -4.94072 -1.14703 8.14416
            CHANNELS 3 Zrotation Xrotation Yrotation
            JOINT LeftArm
            {
              OFFSET 14.108 0 -2.74767e-005
              CHANNELS 3 Zrotation Xrotation Yrotation
              JOINT LeftForeArm
              {
                OFFSET 28.5802 -0.0783412 -0.0284884
                CHANNELS 3 Zrotation Xrotation Yrotation
                JOINT LeftHand
                {
                  OFFSET 27.092 0 0
                  CHANNELS 3 Zrotation Xrotation Yrotation
                  End Site
                  {
                    OFFSET 9.55928 -0.186424 0.145352
                  }
                }
              }
            }
          }
          JOINT RightShoulder
          {
            OFFSET -7.15748 -1.33027 -6.24935
            CHANNELS 3 Zrotation Xrotation Yrotation
            JOINT RightArm
            {
              OFFSET 14.108 0 1.82997e-005
              CHANNELS 3 Zrotation Xrotation Yrotation
              JOINT RightForeArm
              {
                OFFSET 28.5802 -0.0707221 2.30684e-005
                CHANNELS 3 Zrotation Xrotation Yrotation
                JOINT RightHand
                {
                  OFFSET 27.092 0 -1.30073e-005
                  CHANNELS 3 Zrotation Xrotation Yrotation
                  End Site
                  {
                    OFFSET 9.55929 -0.186417 -0.145354
                  }
                }
              }
            }
          }
        }
      }
    }
  }
  JOINT LeftUpLeg
  {
    OFFSET 0.00499725 -0.534999 8.837
    CHANNELS 3 Zrotation Xrotation Yrotation
    JOINT LeftLeg
    {
      OFFSET 39.9035 -0.00124594 0.000252775
      CHANNELS 3 Zrotation Xrotation Yrotation
      JOINT LeftFoot
      {
        OFFSET 39.6689 0 0
        CHANNELS 3 Zrotation Xrotation Yrotation
        JOINT LeftToe
        {
          OFFSET 10.1624 13.6296 0
          CHANNELS 3 Zrotation Xrotation Yrotation
          End Site
          {
            OFFSET 8.38147 0 0
          }
        }
      }
    }
  }
  JOINT RightUpLeg
  {
    OFFSET 0.00499725 -0.535 -8.837
    CHANNELS 3 Zrotation Xrotation Yrotation
    JOINT RightLeg
    {
      OFFSET 39.9036 -0.000268477 0.000106433
      CHANNELS 3 Zrotation Xrotation Yrotation
      JOINT RightFoot
      {
        OFFSET 39.6689 1.17892e-005 0
        CHANNELS 3 Zrotation Xrotation Yrotation
        JOINT RightToe
        {
          OFFSET 10.1624 13.6296 0
          CHANNELS 3 Zrotation Xrotation Yrotation
          End Site
          {
            OFFSET 8.38147 0 0
          }
        }
      }
    }
  }
}
MOTION
Frames:	16
Frame Time:	0.0333333
69.608 88.2539 -121.706 -89.1091 -4.88412 179.067 0.236433 0.521469 0.186837 0.47123 1.04422 0.371705 0.471207 1.0442 0.371688 -17.3149 -1.06524 -11.2263 46.4341 1.17363 10.6941 -164.586 -2.9503 -93.4314 -28.123 1.83253 84.2444 -15.7234 0.936464 -10.9167 -3.17296 -81.7092 -2.6718 -164.853 -5.38086 73.7941 -13.3515 -2.6947 -86.2236 -20.3675 -2.04554 12.6636 2.67168 79.487 -2.44133 -4.44498 1.9714 178.263 -25.1253 1.02878 -1.32198 5.26334 -2.55162 0.717905 90 3.18055e-015 4.77083e-015 -10.8494 0.36557 -179.475 -36.1067 -0.539339 0.508395 5.53359 6.18529 -0.476444 90 -7.95139e-016 -7.95139e-016 
69.6138 88.253 -121.676 -89.1009 -4.84603 179.058 0.245106 0.490182 0.209374 0.488452 0.981732 0.416833 0.48844 0.981709 0.416825 -17.5976 -1.07712 -11.7884 47.1614 1.65947 11.5233 -164.361 -3.21 -93.9434 -28.3948 1.92543 84.3492 -15.8618 0.948291 -10.9905 -3.40418 -82.3201 -2.89704 -164.625 -5.6394 73.2889 -13.2758 -2.68581 -86.0195 -20.3236 -2.04115 12.6436 2.74573 79.3051 -2.51251 -4.45466 1.84343 178.268 -25.1025 1.0289 -1.32555 5.24517 -2.59257 0.713438 90 -3.97569e-015 -1.59028e-015 -10.8618 0.42956 -179.435 -36.1554 -0.52328 0.506203 5.61087 6.15382 -0.49458 90 0 7.95139e-016 
69.6071 88.255 -121.59 -89.0871 -4.86046 178.914 0.319392 0.3619 0.146818 0.637875 0.724927 0.291796 0.637877 0.724954 0.291788 -17.8129 -1.08183 -9.89266 46.7426 0.591423 9.58886 -164.022 -2.60282 -92.1825 -28.819 2.10852 83.6751 -16.2064 0.978444 -11.1385 -4.1042 -83.786 -3.58531 -164.258 -5.05081 75.1078 -15.1358 -2.93514 -86.0094 -20.6528 -2.10128 12.8273 3.20558 80.8423 -2.99808 -4.53807 2.25055 178.565 -25.277 1.02866 -1.31409 5.30299 -2.23553 0.744219 90 -2.38542e-015 -1.59028e-015 -10.9045 0.331392 -179.249 -36.1721 -0.521301 0.509399 5.49102 6.17691 -0.472922 90 -7.95139e-016 -7.95139e-016 
69.5844 88.2717 -121.581 -88.9347 -4.95371 179.274 0.324006 0.43805 0.109051 0.647223 0.877207 0.215795 0.647224 0.877193 0.215787 -17.1105 -1.21664 -10.4589 46.0535 0.595752 10.108 -164.771 -2.80238 -92.7196 -29.5126 2.14489 83.974 -16.2037 0.976853 -11.1519 -4.19586 -83.9269 -3.67514 -165.006 -5.27382 74.5506 -13.3172 -2.64613 -85.9457 -20.3187 -2.03902 12.6423 2.74558 79.4884 -2.49983 -4.32509 2.29659 178.295 -25.121 1.02146 -1.31549 5.29647 -1.77358 0.774022 90 -1.59028e-015 -1.59028e-015 -10.9543 -0.256117 -179.79 -36.4759 -0.525972 0.491733 5.55828 5.57436 -0.545445 90 -7.95139e-016 -8.94531e-016 
69.5287 88.2747 -121.57 -88.9742 -4.86034 179.86 0.372248 0.326498 -0.00189539 0.744534 0.653475 -0.00575708 0.744531 0.653467 -0.00576076 -17.7741 -1.44369 -12.123 47.1168 1.11331 12.2167 -164.278 -3.69105 -94.1709 -29.2946 2.0002 83.846 -16.36 0.993777 -11.2393 -4.52678 -84.417 -4.00406 -164.545 -6.19729 73.1094 -14.9528 -2.92892 -85.6551 -20.581 -2.08871 12.7936 3.1619 81.0685 -2.93567 -4.10995 2.60501 177.763 -24.549 1.01926 -1.31882 5.0737 -1.30194 0.782459 90 2.38542e-015 -0 -11.306 0.0770705 179.631 -37.0699 -0.533392 0.4656 5.78408 5.44624 -0.591331 90 3.97569e-016 1.98785e-016 
69.4058 88.2554 -121.284 -89.1552 -4.86089 179.232 0.393827 0.304042 0.0623325 0.787357 0.60899 0.122736 0.787343 0.609024 0.122725 -17.5599 -1.60425 -11.605 46.5098 0.76577 12.0833 -164.5 -3.65286 -93.6543 -27.0452 1.71242 84.5527 -16.5501 1.02863 -11.3733 -3.2852 -81.9086 -2.7708 -164.711 -6.14428 73.5994 -14.3315 -2.05021 -85.8448 -20.1568 -2.01266 12.5797 2.88223 80.1006 -2.64245 -4.7329 3.00613 178.707 -25.121 1.01878 -1.29118 5.12116 -0.779947 0.832688 90 4.77083e-015 3.18055e-015 -11.4623 -0.258237 -179.725 -37.0686 -0.539661 0.47333 6.14003 4.96215 -0.713419 90 -3.97569e-016 -1.98785e-016 
69.2491 88.2468 -121.014 -89.3226 -4.65154 178.935 0.412523 0.404276 0.00107137 0.825077 0.809025 -0.000596355 0.825069 0.809049 -0.000611744 -17.392 -2.04787 -11.549 46.2397 0.248876 12.8073 -164.725 -4.02937 -93.4949 -26.9521 1.69006 83.999 -16.5086 1.03208 -11.3464 -3.14996 -81.4826 -2.63683 -164.965 -6.56074 73.8086 -16.129 -2.73429 -86.2247 -21.0097 -2.17338 13.0536 3.67047 82.2248 -3.4913 -5.53246 3.271 179.281 -26.1468 1.01715 -1.25655 5.63922 -0.269741 0.919078 90 3.18055e-015 1.59028e-015 -11.9641 -0.416361 -179.433 -37.2414 -0.540883 0.478271 6.04394 4.94763 -0.704081 90 0 4.96962e-016 
69.3523 88.2969 -120.413 -89.5002 -4.57946 176.138 0.455471 0.346937 0.491352 0.908001 0.698245 0.9801 0.907993 0.698232 0.980085 -17.3779 -2.09134 -11.6307 45.9816 0.501434 13.397 -164.725 -4.09205 -93.5765 -26.6787 1.40054 83.7237 -16.5603 1.03297 -11.3821 -3.2373 -81.7437 -2.72308 -164.974 -6.62554 73.729 -16.7338 -2.29641 -86.5471 -21.1181 -2.18891 13.1 3.64635 82.1742 -3.46161 -6.92926 3.1785 -177.471 -28.3907 1.01418 -1.1995 6.65322 0.0717043 1.05057 90 -1.59028e-015 -1.59028e-015 -11.373 -1.75247 -176.928 -36.113 -0.533157 0.489976 6.75596 3.00688 -1.02832 90 0 -2.98177e-016 
69.4219 88.2946 -120.407 -88.9026 -4.74658 178.156 0.642927 0.313849 0.0638372 1.28556 0.628767 0.124323 1.28556 0.628767 0.124311 -16.9403 -2.11877 -11.6019 45.551 0.590491 13.4799 -165.126 -4.00665 -93.5583 -26.5832 1.21431 83.2943 -16.5714 1.03809 -11.3777 -3.14644 -81.4504 -2.633 -165.39 -6.59537 73.7325 -16.9344 -2.11172 -86.729 -21.213 -2.21615 13.1813 3.74508 82.1107 -3.58447 -5.22487 3.28543 -179.481 -26.5006 1.01533 -1.22763 5.89531 0.0234952 0.962189 90 7.95139e-016 -7.95139e-016 -11.6935 -2.18642 -179.694 -38.0913 -0.499266 0.4524 8.09131 1.11854 -1.3293 90 1.19271e-015 -1.98785e-016 
69.3548 88.3938 -120.165 -88.6336 -4.89514 179.296 0.676649 0.422303 -0.255368 1.35522 0.84205 -0.515579 1.35523 0.842027 -0.515593 -16.6481 -2.67501 -11.8934 46.3258 -0.332295 13.9037 -165.548 -4.55899 -93.704 -27.3077 1.73885 82.8267 -16.5592 1.04111 -11.3523 -3.07681 -81.2112 -2.56389 -165.823 -7.20105 73.5888 -14.444 -1.87482 -87.6158 -21.0013 -2.1752 13.0725 2.70322 79.7531 -2.52985 -4.09515 3.48765 179.658 -24.8416 1.01519 -1.2699 5.17105 0.656221 0.946626 90 -2.38542e-015 7.95139e-016 -12.1772 -1.2688 178.808 -39.2907 -0.491507 0.426321 8.6073 2.27992 -1.29044 90 7.95139e-016 1.19271e-015 
69.3533 88.5175 -119.785 -88.7592 -5.04429 179.094 0.728321 0.345928 -0.280691 1.45837 0.688744 -0.565604 1.45837 0.688739 -0.565613 -16.7434 -2.65168 -11.8209 46.7611 0.0517715 14.2213 -165.418 -4.51826 -93.6227 -26.1351 1.21921 82.3459 -16.4973 1.03603 -11.3226 -3.02934 -81.0397 -2.5166 -165.722 -7.1972 73.68 -15.8966 -2.14701 -87.7254 -21.4211 -2.25182 13.2949 2.93869 80.5282 -2.75688 -4.40333 3.5022 -179.841 -24.7537 1.01062 -1.266 4.83488 0.896423 0.947565 90 -2.38542e-015 -1.59028e-015 -12.4053 -1.43371 177.964 -39.2624 -0.483442 0.456707 8.48019 3.69423 -1.17227 90 -1.59028e-015 -1.39149e-015 
69.4033 88.6466 -119.362 -88.8127 -5.26761 178.913 0.666628 0.475184 -0.171671 1.33475 0.948827 -0.348708 1.33475 0.948858 -0.348722 -15.519 -2.80746 -12.8979 46.1187 0.312436 15.0799 -166.709 -4.70274 -94.7441 -27.5152 1.29106 82.067 -16.2737 1.00538 -11.2004 -3.35604 -82.0618 -2.83921 -167.083 -7.42077 72.5573 -14.6218 -2.43008 -87.8109 -21.483 -2.27006 13.3276 2.92482 79.6691 -2.69278 -4.07221 2.80694 -179.491 -24.0586 1.00785 -1.31047 4.34313 0.397598 0.874533 90 1.19271e-015 -7.95139e-016 -12.3996 -0.697916 176.915 -39.0245 -0.469014 0.481564 7.84551 3.73053 -1.07127 90 0 -2.18663e-015 
69.4634 88.7709 -118.874 -88.899 -5.43718 178.744 0.64249 0.505081 -0.130594 1.28623 1.00918 -0.266687 1.2862 1.00916 -0.266705 -15.573 -3.08709 -13.2042 46.9235 -0.336419 15.0877 -166.735 -5.03122 -94.9803 -27.3869 1.40836 81.944 -16.1872 0.996271 -11.1441 -3.7209 -82.9614 -3.20022 -167.142 -7.7498 72.3405 -14.5275 -3.0047 -87.5857 -21.9093 -2.34941 13.5415 2.7875 79.2174 -2.51817 -3.91734 2.64943 -179.024 -23.4165 1.00394 -1.33872 3.76974 0.591304 0.856003 90 1.19271e-015 7.95139e-016 -12.4816 -0.216732 175.746 -38.5612 -0.45074 0.520023 6.82416 4.63544 -0.824242 90 7.95139e-016 3.97569e-016 
69.5159 88.8015 -118.486 -89.2083 -5.6384 179.438 0.620047 0.547934 -0.320758 1.24327 1.09285 -0.647335 1.24327 1.09283 -0.647342 -15.1698 -3.25042 -13.0579 46.389 -0.196376 15.6432 -167.184 -5.15791 -94.8466 -24.9478 1.22629 82.7327 -16.5443 1.04786 -11.3556 -2.89792 -80.5544 -2.3845 -167.538 -7.80427 72.5077 -10.7807 -2.6194 -88.2325 -22.652 -2.49891 13.9358 2.10497 77.0208 -1.82413 -3.43541 2.56103 -179.496 -22.0374 0.983591 -1.40589 3.11891 0.478287 0.792935 90 3.97569e-016 7.95139e-016 -12.9906 0.493115 173.36 -38.3236 -0.433832 0.521185 6.07857 3.89584 -0.768811 90 0 3.18055e-015 
69.6276 88.946 -117.855 -89.2755 -5.94851 179.115 0.68454 0.433758 -0.323084 1.37159 0.864082 -0.6512 1.37158 0.864085 -0.651208 -15.6356 -3.36708 -12.3346 46.8269 -0.613479 15.3334 -166.645 -5.13193 -94.1017 -26.6246 1.56177 81.5001 -16.4215 1.02156 -11.2353 -3.54275 -82.5741 -3.02111 -167.036 -7.81793 73.3413 -10.2902 -3.26936 -88.0765 -24.4552 -2.88273 14.8959 2.67725 80.7989 -2.49726 -3.36059 1.84755 -178.835 -21.6601 0.978938 -1.44149 2.71506 0.0844661 0.715272 90 -7.95139e-016 -7.95139e-016 -12.9226 0.619339 172.019 -37.2582 -0.402609 0.564634 3.96813 3.88808 -0.4497 90 -3.18055e-015 -2.78299e-015 
69.7285 89.0696 -117.111 -89.5089 -6.33536 178.728 0.568239 0.507071 -0.152467 1.13789 1.01311 -0.309816 1.13789 1.01309 -0.309819 -14.6577 -3.60195 -13.2493 46.26 -0.570734 16.13 -167.749 -5.41527 -95.0786 -28.3343 2.26801 81.8531 -16.4698 1.01435 -11.2424 -4.25061 -83.9923 -3.72253 -168.17 -8.06521 72.4104 -8.12146 -3.89333 -87.517 -25.1884 -3.06514 15.3075 3.9053 83.5303 -3.82677 -3.4207 1.30807 -177.992 -21.2001 0.974955 -1.48085 2.25935 -0.0233139 0.663513 90 -1.19271e-015 -0 -12.868 0.67808 170.758 -35.9687 -0.359945 0.603012 1.23736 4.78734 0.142139 90 0 -1.98785e-015 
